<?xml version="1.0" encoding="UTF-8" standalone="no"?>
<!-- Generator: Adobe Illustrator 16.0.0, SVG Export Plug-In . SVG Version: 6.00 Build 0)  -->

<svg
   xmlns:dc="http://purl.org/dc/elements/1.1/"
   xmlns:cc="http://creativecommons.org/ns#"
   xmlns:rdf="http://www.w3.org/1999/02/22-rdf-syntax-ns#"
   xmlns:svg="http://www.w3.org/2000/svg"
   xmlns="http://www.w3.org/2000/svg"
   xmlns:sodipodi="http://sodipodi.sourceforge.net/DTD/sodipodi-0.dtd"
   xmlns:inkscape="http://www.inkscape.org/namespaces/inkscape"
   version="1.1"
   id="Layer_1"
   x="0px"
   y="0px"
   width="24px"
   height="22.938px"
   viewBox="0 0 24 22.938"
   enable-background="new 0 0 24 22.938"
   xml:space="preserve"
   inkscape:version="0.91 r13725"
   sodipodi:docname="in_hover_white.svg"><metadata
     id="metadata11"><rdf:RDF><cc:Work
         rdf:about=""><dc:format>image/svg+xml</dc:format><dc:type
           rdf:resource="http://purl.org/dc/dcmitype/StillImage" /><dc:title></dc:title></cc:Work></rdf:RDF></metadata><defs
     id="defs9" /><sodipodi:namedview
     pagecolor="#ffffff"
     bordercolor="#666666"
     borderopacity="1"
     objecttolerance="10"
     gridtolerance="10"
     guidetolerance="10"
     inkscape:pageopacity="0"
     inkscape:pageshadow="2"
     inkscape:window-width="1058"
     inkscape:window-height="720"
     id="namedview7"
     showgrid="false"
     inkscape:zoom="10.288604"
     inkscape:cx="4.552498"
     inkscape:cy="11.469"
     inkscape:window-x="589"
     inkscape:window-y="179"
     inkscape:window-maximized="0"
     inkscape:current-layer="Layer_1" /><g
     id="g3"
     style="fill:#ffffff;fill-opacity:1"><path
       fill="#FFFFFF"
       d="M2.875,5.344H2.844C1.109,5.344,0,4.156,0,2.672C0,1.156,1.156,0,2.906,0c1.766,0,2.859,1.156,2.875,2.672   C5.797,4.156,4.672,5.344,2.875,5.344z M5.453,22.938H0.297V7.453h5.156V22.938z M24,22.938h-5.141v-8.281   c0-2.078-0.75-3.5-2.609-3.5c-1.422,0-2.266,0.953-2.641,1.875c-0.125,0.344-0.172,0.797-0.172,1.266v8.641H8.297   c0.063-14.031,0-15.484,0-15.484h5.141v2.25h-0.031c0.672-1.063,1.891-2.609,4.672-2.609c3.391,0,5.922,2.219,5.922,6.969V22.938z"
       id="path5"
       style="fill:#ffffff;fill-opacity:1" /></g></svg>